<svg xmlns="http://www.w3.org/2000/svg" version="1.1" xmlns:xlink="http://www.w3.org/1999/xlink" xmlns:svgjs="http://svgjs.dev/svgjs" width="1000" height="1000"><g clip-path="url(#SvgjsClipPath1139)"><rect width="1000" height="1000" fill="#292929"></rect><g transform="matrix(21.875,0,0,21.875,270.3125,150)"><svg xmlns="http://www.w3.org/2000/svg" version="1.1" xmlns:xlink="http://www.w3.org/1999/xlink" xmlns:svgjs="http://svgjs.dev/svgjs" width="21" height="32"><svg width="21" height="32" viewBox="0 0 21 32" fill="none" xmlns="http://www.w3.org/2000/svg">
<path d="M20.9213 15.69C20.8613 15.64 20.7813 15.63 20.7213 15.67L17.8013 17.39L15.3513 18.57L15.9513 16.98C15.9513 16.98 15.9613 16.94 15.9613 16.92V14.84L17.0413 12.14C17.0713 12.07 17.0413 11.98 16.9813 11.94C16.9113 11.9 16.8213 11.9 16.7713 11.96L12.6513 15.83V13.76C12.6513 13.76 12.6513 13.72 12.6413 13.7L10.7013 8.95002C10.6813 8.89002 10.6213 8.85002 10.5513 8.84002C10.4913 8.84002 10.4213 8.87002 10.3913 8.93002L9.86128 9.87002V8.74002L10.4213 8.46002C10.4713 8.43002 10.5113 8.38002 10.5113 8.33002C10.5113 8.28002 10.4913 8.22002 10.4513 8.18002L10.0913 7.88002L10.7913 7.38002C10.7913 7.38002 10.8413 7.33002 10.8513 7.29002L11.0713 6.59002C11.0913 6.54002 11.0713 6.48002 11.0413 6.44002C11.0113 6.40002 10.9613 6.37002 10.9013 6.37002H9.79128C9.79128 6.37002 9.75128 6.37002 9.73128 6.38002L9.23128 6.57002L9.21128 6.33002L9.55128 6.01002C9.55128 6.01002 9.60128 5.93002 9.60128 5.88002V5.25002C9.60128 5.16002 9.52128 5.08002 9.43128 5.08002H8.33128C8.24128 5.08002 8.16128 5.16002 8.16128 5.25002V5.89002L7.93128 5.62002C7.93128 5.62002 7.89128 5.58002 7.87128 5.57002L7.21128 5.28002C7.16128 5.26002 7.10128 5.26002 7.05128 5.29002C7.00128 5.32002 6.97128 5.38002 6.97128 5.43002V6.26002C6.97128 6.26002 6.97128 6.31002 6.99128 6.33002L7.19128 6.76002L6.84128 6.91002C6.84128 6.91002 6.78128 6.95002 6.76128 6.98002L6.37128 7.63002C6.34128 7.68002 6.34128 7.75002 6.37128 7.80002C6.40128 7.85002 6.46128 7.89002 6.52128 7.89002H7.24128L7.03128 8.35002H6.34128C6.28128 8.35002 6.23128 8.37002 6.20128 8.42002C6.17128 8.47002 6.16128 8.53002 6.18128 8.58002L6.59128 9.62002L6.19128 9.77002C6.12128 9.80002 6.08128 9.86002 6.08128 9.93002V10.51C6.08128 10.51 6.10128 10.6 6.13128 10.64L6.45128 10.94L6.22128 12.04C6.22128 12.04 6.22128 12.13 6.24128 12.17L7.10128 13.51L6.54128 15.68L5.87128 16.87C5.87128 16.88 5.86128 16.89 5.86128 16.91C5.86128 16.92 5.86128 16.93 5.86128 16.95V19.13L0.261279 15.26C0.191279 15.21 0.101279 15.22 0.0512789 15.28C0.0012789 15.34 -0.0187211 15.42 0.0212789 15.49L1.06128 17.26L1.08128 19.12C1.08128 19.12 1.09128 19.19 1.11128 19.22L2.19128 20.74L2.23128 23.2C2.23128 23.2 2.23128 23.21 2.23128 23.22C2.23128 23.22 2.23128 23.22 2.23128 23.23C2.23128 23.23 2.23128 23.25 2.23128 23.26C2.23128 23.26 2.23128 23.28 2.24128 23.29C2.24128 23.29 2.24128 23.29 2.25128 23.3L10.0313 31.93C10.0313 31.93 10.0313 31.93 10.0413 31.93C10.0413 31.93 10.0513 31.93 10.0613 31.93C10.0613 31.93 10.0613 31.93 10.0713 31.93C10.0713 31.93 10.0713 31.93 10.0813 31.93C10.0813 31.93 10.0813 31.93 10.0913 31.93C10.1013 31.93 10.1113 31.93 10.1213 31.93C10.1313 31.93 10.1413 31.93 10.1513 31.93C10.1513 31.93 10.1613 31.93 10.1713 31.93C10.1713 31.93 10.1813 31.93 10.1913 31.93L17.5413 23.77L19.3913 21.94C19.3913 21.94 19.4313 21.89 19.4413 21.86L20.2513 18.74C20.2513 18.74 20.2513 18.71 20.2513 18.7V17.22L20.8413 15.87C20.8713 15.8 20.8513 15.72 20.8013 15.67L20.9213 15.69ZM16.4313 12.72L15.6313 14.74C15.6313 14.74 15.6213 14.78 15.6213 14.8V16.88L13.8913 21.47L12.5813 22.66L12.1413 19.6L14.6113 16.17C14.6713 16.09 14.6513 15.99 14.5713 15.93C14.4913 15.87 14.3913 15.89 14.3313 15.97L12.4613 18.58L12.6313 18.06C12.6313 18.06 12.6313 18.03 12.6313 18.01V16.31L16.4313 12.74V12.72ZM7.24128 20.11L6.21128 19.39V17.49L10.2613 23.04L10.0813 25.96L7.30128 20.17C7.30128 20.17 7.30128 20.17 7.30128 20.16C7.30128 20.16 7.30128 20.16 7.30128 20.15C7.30128 20.15 7.29128 20.14 7.28128 20.13L7.24128 20.11ZM12.2813 22.97L10.3813 26.65L10.6713 21.92L11.9813 20.95L12.2713 22.97H12.2813ZM10.0413 26.67L10.0213 26.94C10.0213 26.94 10.0213 26.96 10.0213 26.97V30.97L6.77128 23.17L7.22128 20.8L10.0413 26.67ZM9.64128 30.97L3.06128 23.67L7.39128 25.56L9.64128 30.97ZM10.3613 27.44L11.0813 26.05L13.3813 24.6L10.3713 30.95V27.44H10.3613ZM11.3913 25.45L12.6013 23.11L14.1513 21.7C14.1513 21.7 14.1913 21.66 14.2013 21.63L14.5313 20.74L14.9613 23.19L11.3813 25.45H11.3913ZM10.5013 9.40002L12.2913 13.79V17.97L12.0913 18.61L11.8013 19.51V19.53C11.8013 19.53 11.8013 19.53 11.8013 19.54C11.8013 19.54 11.8013 19.56 11.8013 19.57L11.9413 20.57L10.7113 21.48L11.0913 15.42C11.0913 15.42 11.0913 15.38 11.0913 15.35L10.5213 13.68V11.57C10.5213 11.48 10.4413 11.4 10.3513 11.4C10.2613 11.4 10.1813 11.48 10.1813 11.57V13.71C10.1813 13.71 10.1813 13.75 10.1813 13.77L10.7513 15.43L10.3113 22.52L6.25128 16.95L10.5113 9.40002H10.5013ZM9.41128 9.53002L9.50128 9.47002V10.47L9.29128 10.82L9.03128 9.80002L9.40128 9.54002L9.41128 9.53002ZM9.83128 6.70002H10.6713L10.5413 7.12002L9.70128 7.71002C9.70128 7.71002 9.70128 7.71002 9.69128 7.72002C9.69128 7.72002 9.69128 7.72002 9.68128 7.73002C9.68128 7.73002 9.68128 7.73002 9.67128 7.75002C9.67128 7.75002 9.67128 7.75002 9.67128 7.76002C9.67128 7.76002 9.67128 7.77002 9.67128 7.78002C9.67128 7.78002 9.67128 7.79002 9.67128 7.80002C9.67128 7.80002 9.67128 7.81002 9.67128 7.82002C9.67128 7.82002 9.67128 7.83002 9.67128 7.84002C9.67128 7.84002 9.67128 7.85002 9.67128 7.86002C9.67128 7.86002 9.67128 7.87002 9.67128 7.88002C9.67128 7.88002 9.67128 7.89002 9.67128 7.90002C9.67128 7.90002 9.67128 7.91002 9.67128 7.92002C9.67128 7.92002 9.67128 7.92002 9.67128 7.93002C9.67128 7.93002 9.67128 7.94002 9.67128 7.95002C9.67128 7.95002 9.68128 7.97002 9.69128 7.97002L10.0213 8.24002L9.68128 8.41002L9.53128 8.32002L9.40128 7.87002L9.31128 7.20002L9.28128 6.90002L9.84128 6.69002L9.83128 6.70002ZM6.82128 7.55002L7.03128 7.21002L7.41128 7.04002L7.58128 7.14002L7.39128 7.55002H6.82128ZM7.05128 8.70002L7.32128 9.13002L7.46128 9.34002V10.07L6.97128 9.61002L6.60128 8.69002H7.05128V8.70002ZM6.59128 12.04L6.76128 11.21L7.52128 11.91L8.31128 12.58L7.22128 14.52L7.48128 13.52C7.48128 13.52 7.48128 13.42 7.46128 13.38L6.60128 12.03L6.59128 12.04ZM7.74128 11.66L6.76128 10.75L6.42128 10.44V10.05L6.77128 9.91002L7.50128 10.59C7.50128 10.59 7.57128 10.64 7.62128 10.64C7.64128 10.64 7.67128 10.64 7.69128 10.63C7.75128 10.6 7.79128 10.54 7.79128 10.47V9.30002C7.79128 9.29002 7.79128 9.28002 7.79128 9.26002C7.79128 9.26002 7.79128 9.26002 7.79128 9.25002C7.79128 9.24002 7.79128 9.22002 7.77128 9.21002L7.33128 8.52002L7.95128 7.15002C7.95128 7.15002 7.95128 7.13002 7.96128 7.12002C7.96128 7.12002 7.96128 7.12002 7.96128 7.11002C7.96128 7.11002 7.96128 7.10002 7.96128 7.09002C7.96128 7.09002 7.96128 7.09002 7.96128 7.08002C7.96128 7.08002 7.96128 7.07002 7.96128 7.06002C7.96128 7.06002 7.96128 7.06002 7.96128 7.05002C7.96128 7.05002 7.96128 7.04002 7.96128 7.03002C7.96128 7.03002 7.96128 7.03002 7.96128 7.02002C7.96128 7.02002 7.96128 7.01002 7.96128 7.00002C7.96128 7.00002 7.96128 7.00002 7.96128 6.99002C7.96128 6.99002 7.96128 6.99002 7.95128 6.98002C7.95128 6.98002 7.95128 6.98002 7.94128 6.97002C7.94128 6.97002 7.94128 6.97002 7.93128 6.96002C7.93128 6.96002 7.93128 6.96002 7.92128 6.96002L7.58128 6.77002L7.34128 6.26002V5.73002L7.73128 5.90002L8.24128 6.49002C8.29128 6.54002 8.36128 6.56002 8.43128 6.54002C8.50128 6.52002 8.54128 6.45002 8.54128 6.38002V5.45002H9.30128V5.84002L8.95128 6.17002C8.95128 6.17002 8.89128 6.26002 8.90128 6.31002L9.00128 7.29002L9.09128 7.98002C9.09128 7.98002 9.09128 8.00002 9.09128 8.01002L9.24128 8.54002C9.24128 8.54002 9.24128 8.54002 9.24128 8.55002C9.24128 8.55002 9.24128 8.55002 9.24128 8.56002C9.24128 8.56002 9.24128 8.57002 9.24128 8.58002C9.24128 8.58002 9.24128 8.58002 9.24128 8.59002C9.24128 8.59002 9.24128 8.59002 9.25128 8.60002C9.25128 8.60002 9.27128 8.61002 9.28128 8.62002L9.49128 8.75002V9.08002L8.73128 9.61002C8.73128 9.61002 8.71128 9.63002 8.70128 9.64002C8.70128 9.65002 8.68128 9.67002 8.68128 9.68002C8.68128 9.69002 8.68128 9.71002 8.68128 9.72002C8.68128 9.72002 8.68128 9.72002 8.68128 9.73002C8.68128 9.75002 8.68128 9.76002 8.68128 9.78002L9.06128 11.28L8.48128 12.3L7.75128 11.68L7.74128 11.66ZM1.42128 19.06L1.40128 17.21C1.40128 17.21 1.40128 17.15 1.38128 17.12L0.711279 15.98L6.96128 20.32L6.49128 22.79L3.15128 18.85C3.09128 18.78 2.98128 18.77 2.91128 18.83C2.84128 18.89 2.83128 19 2.89128 19.07L6.45128 23.26L7.21128 25.09L2.58128 23.07L2.54128 20.66C2.54128 20.66 2.53128 20.59 2.51128 20.56L1.43128 19.05L1.42128 19.06ZM20.0513 17.13C20.0513 17.13 20.0413 17.17 20.0413 17.2V18.7L19.2413 21.75L17.4213 23.55L10.7413 30.97L13.9213 24.26L15.2513 23.42C15.2513 23.42 15.2613 23.42 15.2713 23.41L17.4013 21.65C17.4013 21.65 17.4513 21.59 17.4613 21.55L17.7513 20.1L18.8913 18.75C18.9513 18.68 18.9413 18.57 18.8713 18.51C18.8013 18.45 18.6913 18.46 18.6313 18.53L17.4713 19.91C17.4713 19.91 17.4413 19.96 17.4313 19.99L17.1413 21.43L15.2913 22.96L14.7913 20.11L15.1913 19.03L17.9713 17.69C17.9713 17.69 17.9713 17.69 17.9813 17.69L20.4613 16.24L20.0713 17.14L20.0513 17.13Z" fill="white"></path>
<path d="M10.361 4.95999L12.071 4.50999L12.991 4.54999L13.801 5.16999C13.801 5.16999 13.871 5.20999 13.901 5.20999C13.901 5.20999 13.901 5.20999 13.911 5.20999L15.061 5.11999C15.111 5.11999 15.161 5.08999 15.191 5.03999L15.401 4.71999L16.391 4.74999C16.441 4.74999 16.491 4.72999 16.531 4.68999C16.561 4.64999 16.581 4.58999 16.561 4.53999L16.471 4.16999L16.931 3.92999C16.981 3.89999 17.021 3.84999 17.021 3.77999C17.021 3.70999 16.991 3.65999 16.941 3.62999L16.761 3.51999L17.751 3.14999C17.801 3.12999 17.841 3.08999 17.851 3.03999C17.861 2.98999 17.851 2.92999 17.821 2.88999L17.391 2.33999C17.351 2.27999 17.271 2.25999 17.201 2.27999L15.171 2.90999L15.821 0.219995C15.831 0.159995 15.821 0.109995 15.781 0.0599946C15.741 0.0199946 15.691 -5.37094e-06 15.631 0.00999463L15.161 0.0799946C15.101 0.0799946 15.051 0.129995 15.031 0.189995L14.381 1.77999L14.191 0.959995C14.171 0.889995 14.121 0.839995 14.051 0.829995C13.981 0.819995 13.911 0.849995 13.881 0.899995L13.281 1.79999C13.281 1.79999 13.251 1.85999 13.251 1.88999L13.211 3.12999L12.881 2.91999C12.881 2.91999 12.821 2.88999 12.791 2.88999H12.231C12.171 2.89999 12.121 2.92999 12.091 2.97999L11.661 3.61999L10.211 4.66999C10.141 4.72 10.121 4.80999 10.161 4.87999C10.201 4.95 10.281 4.98999 10.361 4.96999V4.95999ZM11.881 3.86999C11.881 3.86999 11.911 3.83999 11.921 3.82999L12.321 3.23999H12.741L13.281 3.56999C13.331 3.59999 13.401 3.60999 13.451 3.56999C13.501 3.53999 13.541 3.48999 13.541 3.41999L13.591 1.92999L13.951 1.39999L14.171 2.35999C14.191 2.42999 14.251 2.48999 14.321 2.48999C14.391 2.48999 14.461 2.44999 14.491 2.37999L15.311 0.379995L15.431 0.359995L14.771 3.09999C14.761 3.15999 14.771 3.21999 14.821 3.26999C14.871 3.31999 14.931 3.32999 14.991 3.30999L17.191 2.62999L17.401 2.89999L16.301 3.31999C16.241 3.33999 16.201 3.39999 16.191 3.45999C16.181 3.51999 16.221 3.58999 16.271 3.61999L16.491 3.75999L16.171 3.92999C16.101 3.96999 16.061 4.04999 16.081 4.11999L16.151 4.39999L15.291 4.37999C15.231 4.37999 15.181 4.40999 15.141 4.45999L14.921 4.78999L13.921 4.86999L13.121 4.24999C13.121 4.24999 13.061 4.22 13.021 4.20999L12.021 4.16999C12.011 4.16999 11.991 4.16999 11.981 4.16999L11.141 4.38999L11.871 3.85999L11.881 3.86999Z" fill="white"></path>
</svg></svg></g></g><defs><clipPath id="SvgjsClipPath1139"><rect width="1000" height="1000" x="0" y="0" rx="500" ry="500"></rect></clipPath></defs></svg>