<svg width="166" height="250" viewBox="0 0 166 250" fill="none" xmlns="http://www.w3.org/2000/svg">
<path d="M165.122 122.829C164.661 122.447 164.046 122.371 163.585 122.676L140.678 136.036L121.461 145.197L126.15 132.83C126.15 132.677 126.227 132.524 126.227 132.372V116.187C126.303 116.187 134.682 95.1168 134.682 95.1168C134.913 94.506 134.682 93.8953 134.221 93.5136C133.683 93.1319 132.991 93.2082 132.53 93.6663L100.168 123.821V107.713C100.168 107.561 100.168 107.332 100.091 107.179L84.8712 70.2292C84.6406 69.7712 84.2562 69.4658 83.7181 69.3895C83.1801 69.3895 82.7189 69.6185 82.4883 70.0765L78.3373 77.4054V68.626L82.7189 66.4885C83.1032 66.2594 83.4107 65.8777 83.4875 65.4197C83.5644 64.9616 83.3338 64.5036 83.0263 64.2745L80.259 61.9079L85.7936 58.0145C86.0242 57.8618 86.1779 57.6328 86.3317 57.3274L88.0997 51.8308C88.2534 51.4491 88.0997 50.991 87.8691 50.6093C87.6385 50.2276 87.1772 50.0749 86.7929 50.0749H78.1067C77.953 50.0749 77.7992 50.0749 77.6455 50.1512L73.7252 51.6017L73.4946 49.7695L76.185 47.2502C76.4925 47.0212 76.6462 46.6395 76.6462 46.2578V41.2955C76.6462 40.5321 76.0313 39.9214 75.2626 39.9214H66.6533C65.8846 39.9214 65.2696 40.5321 65.2696 41.2955V46.2578L63.4248 44.1202C63.271 43.9675 63.1173 43.8148 62.9636 43.7385L57.7365 41.5246C57.3521 41.3719 56.8141 41.3719 56.4297 41.6009C56.0454 41.8299 55.8148 42.288 55.8148 42.746V49.2351C55.8148 49.4642 55.8148 49.6168 55.9685 49.7695L57.5828 53.1286L54.8155 54.3501C54.5849 54.4264 54.3543 54.6554 54.2005 54.8845L51.1258 59.923C50.8952 60.3047 50.8952 60.8391 51.1258 61.2972C51.3564 61.7552 51.8176 61.9843 52.2788 61.9843H57.9671L56.3529 65.5724H50.8952C50.434 65.5724 50.0496 65.8014 49.819 66.1831C49.5884 66.5648 49.5115 67.0229 49.6653 67.4046L52.8938 75.4968L49.7421 76.7183C49.2041 76.9473 48.8966 77.4054 48.8966 77.9398V82.444C48.8966 82.8257 49.0503 83.2074 49.3578 83.4364L51.8945 85.7267L50.1265 94.277C50.1265 94.5824 50.1265 94.9641 50.2802 95.2695L57.0447 105.728L52.6631 122.6L47.3592 131.914C47.3592 131.99 47.2823 132.066 47.2055 132.219C47.2055 132.295 47.2055 132.448 47.2055 132.524V149.549L3.08277 119.546C2.54469 119.165 1.85287 119.241 1.39165 119.699C0.930441 120.157 0.853572 120.844 1.16105 121.378L9.30914 135.196L9.46288 149.625C9.46288 149.93 9.53975 150.159 9.69349 150.389L18.1491 162.222L18.4565 181.383C18.4565 181.536 18.4565 181.689 18.5334 181.841C18.5334 181.994 18.6871 182.071 18.764 182.223L28.0651 192.453C28.2957 192.758 28.6801 192.911 29.0644 192.911C29.4488 192.911 29.6794 192.835 29.9869 192.529C30.5249 192.071 30.6018 191.155 30.0637 190.621L24.9904 184.972L42.8239 192.682C42.9777 192.682 43.2083 192.758 43.362 192.758C43.9001 192.758 44.3613 192.453 44.5919 191.995C44.8994 191.308 44.5919 190.544 43.9001 190.239L21.1469 180.391L20.8395 161.687C20.8395 161.382 20.7626 161.153 20.6089 160.924L12.1533 149.091L11.9995 134.738C11.9995 134.509 11.9995 134.28 11.8458 134.051L6.61873 125.196L55.5842 159.015L51.9713 178.253L25.7591 147.564C25.2979 147.029 24.4523 146.953 23.8373 147.411C23.2993 147.869 23.2224 148.709 23.6836 149.32L51.587 181.994L55.8148 192.071C56.0454 192.606 56.5066 192.911 57.0447 192.911C57.5828 192.911 57.429 192.911 57.5828 192.835C58.2746 192.529 58.582 191.766 58.2746 191.079L54.1237 181.154L57.5828 162.756L71.7266 192.148C71.9572 192.606 72.4184 192.911 72.9565 192.911C73.4946 192.911 73.3409 192.911 73.5715 192.758C74.2633 192.453 74.4939 191.613 74.1864 191.003L58.2746 157.87C58.2746 157.87 58.2746 157.794 58.2746 157.717C58.2746 157.717 58.2746 157.717 58.2746 157.641C58.2746 157.641 58.1977 157.565 58.1208 157.488L50.0496 151.915V137.105L81.7964 180.391L81.1046 191.613C81.1046 192.377 81.6427 192.987 82.3345 193.064C82.3345 193.064 82.3345 193.064 82.4114 193.064C83.1032 193.064 83.7181 192.529 83.7181 191.842L84.948 171.688L95.2485 164.13L97.5545 179.857L91.6356 191.155C91.3282 191.842 91.5588 192.606 92.2506 192.987C92.9424 193.293 93.7111 193.064 94.0954 192.377L100.091 180.925L112.313 169.932C112.467 169.779 112.621 169.627 112.698 169.398L115.311 162.451L118.693 181.536L104.165 190.621C103.55 191.003 103.32 191.842 103.781 192.453C104.012 192.835 104.473 193.064 104.934 193.064C105.395 193.064 105.395 193.064 105.626 192.835L120.923 183.292C120.923 183.292 121 183.292 121.076 183.216L137.757 169.55C137.988 169.321 138.141 169.092 138.218 168.787L140.524 157.488L149.441 147.029C149.902 146.495 149.825 145.655 149.287 145.121C148.749 144.663 147.904 144.739 147.366 145.274L138.218 156.038C138.064 156.191 137.988 156.42 137.911 156.649L135.681 167.871L121.153 179.78L117.233 157.565L120.385 149.167L142.215 138.785C142.215 138.785 142.215 138.785 142.292 138.785L161.74 127.486L158.665 134.509C158.665 134.662 158.588 134.891 158.588 135.044V146.724L152.285 170.39L132.76 186.117L118.54 190.621C117.848 190.85 117.464 191.613 117.694 192.3C117.848 192.835 118.386 193.216 119.001 193.216C119.616 193.216 119.308 193.216 119.385 193.216L129.532 190.01L128.61 191.155C128.148 191.766 128.225 192.606 128.84 193.064C129.071 193.293 129.378 193.369 129.686 193.369C129.993 193.369 130.454 193.216 130.762 192.911L134.452 188.407L154.437 172.299C154.668 172.146 154.822 171.841 154.899 171.612L161.279 147.335C161.279 147.258 161.279 147.106 161.279 147.029V135.502L165.891 124.967C166.122 124.432 165.968 123.821 165.583 123.44L165.122 122.829ZM66.4995 74.7334L69.2668 77.1L71.2654 85.0396L67.422 82.0623C66.8839 81.6042 66.1152 81.6806 65.5771 82.215L62.2717 85.803V74.428L66.4995 74.6571V74.7334ZM75.5701 74.3517V82.1386L73.9558 84.8869L71.9572 76.9473L75.5701 74.428V74.3517ZM62.2717 89.7728L66.7301 84.9633L71.7266 88.7804L70.4198 91.376L67.5757 96.3383L62.2717 91.8341V89.7728ZM76.9537 66.3358L75.8007 65.6487L75.1857 63.5875L77.4918 63.3584L79.5672 65.1143L76.9537 66.4121V66.3358ZM78.1836 52.8996H84.7943L83.7181 56.1823L77.4149 60.6101L74.6476 60.9155L73.9558 54.5027L78.1836 52.8996ZM67.8832 42.8224H73.8021V45.7997L71.0348 48.3954C70.7273 48.7007 70.5736 49.0824 70.6505 49.5405L71.4191 57.1747L72.111 62.5187C72.111 62.5187 72.111 62.6714 72.111 62.7477L73.3409 66.8702C73.4177 67.1755 73.6483 67.4809 73.9558 67.6336L75.5701 68.626V71.1453L70.4967 74.7334L67.8832 72.5195C67.6526 72.2905 67.3451 72.2141 67.1145 72.2141L61.6568 71.9088L58.5821 67.0992L61.5031 60.6101L62.8098 57.7091L65.7308 59.3886C65.8077 59.3886 65.9615 59.465 66.0383 59.5413C66.0383 59.5413 66.1921 59.5413 66.2689 59.5413C66.2689 59.5413 66.3458 59.5413 66.4227 59.5413C66.4995 59.5413 66.6533 59.5413 66.7301 59.5413C66.807 59.5413 66.9607 59.5413 67.0376 59.3886C67.422 59.1596 67.7294 58.7016 67.7294 58.2435V42.9751L67.8832 42.8224ZM58.4283 44.96L61.5031 46.2578L65.1928 50.5329V55.8006L62.9636 54.5027L60.35 52.9759L58.5052 49.0061V44.8836L58.4283 44.96ZM59.0433 59.465H54.508L56.1222 56.793L59.1201 55.4952L60.5038 56.2586L59.8888 57.6328L59.0433 59.465ZM56.3529 68.397L57.7365 70.5346L59.5813 73.4356V79.1613L55.7379 75.5732L52.8169 68.397H56.3529ZM51.5101 78.9322L54.2774 77.8634L59.5813 82.7493V89.3911L51.5101 81.9859V78.9322ZM52.74 94.4297L54.0468 88.017L59.9657 93.4372L66.1152 98.7049L57.5828 113.821L59.5813 106.034C59.6582 105.652 59.5813 105.27 59.4276 104.965L52.6631 94.506L52.74 94.4297ZM85.0249 167.947L87.9459 120.768C87.9459 120.615 87.9459 120.386 87.9459 120.233L83.4875 107.255V90.8416C83.4875 90.0782 82.8726 89.4675 82.1039 89.4675C81.3352 89.4675 80.7203 90.0782 80.7203 90.8416V107.484C80.7203 107.637 80.7203 107.79 80.7203 107.942L85.1787 120.92L81.7196 176.116L49.8959 132.753L83.3338 73.97L97.4008 108.095V140.693L95.7097 145.961L93.5574 152.602V152.755C93.5574 152.755 93.5574 152.755 93.5574 152.831C93.5574 152.831 93.5574 152.984 93.5574 153.06L94.7104 160.847L85.0249 167.871V167.947ZM110.007 167.947L99.7837 177.185L96.3246 153.29L115.696 126.57C116.157 125.959 116.003 125.119 115.388 124.738C114.773 124.279 113.928 124.432 113.543 125.043L98.8613 145.35L100.168 141.304C100.168 141.151 100.168 140.998 100.168 140.922V127.715L129.993 99.9263L123.767 115.653C123.767 115.806 123.69 115.958 123.69 116.111V132.295C123.613 132.295 110.084 168.024 110.084 168.024L110.007 167.947Z" fill="#563B3F"/>
<path d="M66.8843 62.1373C66.8074 61.3739 66.1156 60.9158 65.3469 60.9922C64.5782 61.0685 64.117 61.7556 64.1939 62.519L64.9626 67.4812C64.9626 67.8629 65.27 68.2447 65.5775 68.3973L69.1903 70.5349C69.4209 70.6876 69.6516 70.6876 69.8822 70.6876C70.3434 70.6876 70.8046 70.4586 71.0352 70.0005C71.4195 69.3898 71.1889 68.55 70.574 68.1683L67.4992 66.3361L66.8074 61.9846L66.8843 62.1373Z" fill="#563B3F"/>
<path d="M82.2583 39.3106L95.6335 35.7989L102.859 36.1042L109.239 40.9901C109.47 41.1428 109.777 41.2955 110.085 41.2955C110.392 41.2955 110.085 41.2955 110.162 41.2955L119.155 40.6084C119.54 40.6084 119.924 40.3794 120.155 39.9977L121.846 37.4784L129.61 37.7074C129.994 37.7074 130.455 37.5547 130.686 37.173C130.916 36.8677 131.07 36.4096 130.916 36.0279L130.224 33.2032L133.837 31.2947C134.299 31.0657 134.529 30.6076 134.529 30.1495C134.529 29.6915 134.299 29.2334 133.914 29.0044L132.531 28.1647L140.294 25.2636C140.679 25.111 140.986 24.8056 141.14 24.3475C141.217 23.9658 141.14 23.5078 140.909 23.2024L137.527 18.9272C137.22 18.4692 136.605 18.3165 136.066 18.4692L120.155 23.3551L125.228 2.43734C125.305 1.97929 125.228 1.52123 124.921 1.21587C124.613 0.910497 124.152 0.757812 123.767 0.757812L120.078 1.29221C119.617 1.29221 119.232 1.67392 119.002 2.13197L113.928 14.4994L112.468 8.08666C112.314 7.55226 111.93 7.17055 111.392 7.09421C110.854 7.01787 110.315 7.2469 110.008 7.62861L105.242 14.6521C105.088 14.8811 105.012 15.1101 105.012 15.3392L104.704 25.0346L102.167 23.4314C101.937 23.2788 101.706 23.2024 101.399 23.2024H97.0171C96.5559 23.2788 96.1716 23.5078 95.941 23.8895L92.5588 28.8517L81.1822 37.0203C80.6441 37.4021 80.4904 38.0891 80.721 38.6999C81.0284 39.3106 81.6434 39.616 82.2583 39.387V39.3106ZM94.2499 30.8366C94.4036 30.7603 94.4805 30.6076 94.5573 30.5313L97.6321 25.9507H100.937L105.165 28.5464C105.55 28.7754 106.088 28.8517 106.549 28.5464C107.01 28.3173 107.241 27.8593 107.241 27.4012L107.625 15.7972L110.392 11.6747L112.16 19.1563C112.314 19.6907 112.775 20.1487 113.39 20.2251C114.005 20.2251 114.543 19.9197 114.774 19.3853L121.154 3.8115L122.153 3.65881L117.003 24.9583C116.926 25.4163 117.003 25.9507 117.387 26.2561C117.772 26.5615 118.233 26.7142 118.694 26.5615L135.99 21.2175L137.681 23.3551L129.071 26.5615C128.61 26.7142 128.226 27.1722 128.226 27.7066C128.226 28.241 128.456 28.699 128.841 29.0044L130.609 30.0732L128.149 31.371C127.611 31.6764 127.303 32.2871 127.457 32.8979L127.995 35.0354L121.231 34.8828C120.77 34.8828 120.308 35.1118 120.078 35.4935L118.31 38.0891L110.469 38.6999L104.166 33.8903C103.935 33.7376 103.705 33.6613 103.397 33.5849L95.5566 33.2796C95.4029 33.2796 95.326 33.2796 95.2492 33.2796L88.6384 35.0354L94.3267 30.913L94.2499 30.8366Z" fill="#563B3F"/>
<path d="M111.238 212.684L86.1019 240.93L98.6315 214.134C98.939 213.447 98.6315 212.684 98.0166 212.378C97.3248 212.073 96.5561 212.378 96.2486 212.989L82.3354 242.686V213.6C82.3354 212.836 81.7204 212.226 80.9517 212.226C80.183 212.226 79.5681 212.836 79.5681 213.6V242.686L65.7317 213.065C65.4242 212.378 64.5787 212.073 63.9637 212.378C63.2719 212.684 62.9644 213.447 63.2719 214.134L76.109 241.617L49.128 212.684C48.5899 212.149 47.7444 212.073 47.2063 212.684C46.6682 213.218 46.5914 214.058 47.2063 214.592L79.9524 249.71C79.9524 249.71 80.0293 249.71 80.1062 249.786C80.1062 249.786 80.2599 249.862 80.3368 249.862C80.4136 249.862 80.5674 249.862 80.6442 249.862C80.7211 249.862 80.798 249.862 80.8748 249.862C80.8748 249.862 80.8748 249.862 80.9517 249.862C80.9517 249.862 81.0286 249.862 81.1054 249.862C81.1054 249.862 81.2592 249.862 81.2592 249.786C81.2592 249.786 81.3361 249.71 81.4129 249.633L112.699 214.516C113.16 213.981 113.16 213.142 112.545 212.607C112.007 212.149 111.161 212.149 110.623 212.76L111.238 212.684Z" fill="#563B3F"/>
<path d="M11.6913 201.996C10.9995 201.996 10.4614 202.531 10.4614 203.218V206.272C10.2308 206.424 9.92334 206.577 9.69273 206.653C8.5397 207.035 7.23293 207.035 6.15677 206.653C5.61868 206.424 5.15747 206.119 4.69626 205.737C4.31192 205.355 4.00444 204.897 3.77383 204.363C3.54323 203.829 3.46636 203.294 3.46636 202.684C3.46636 202.073 3.54323 201.462 3.77383 200.928C4.00444 200.393 4.31192 199.935 4.69626 199.553C5.0806 199.172 5.54182 198.866 6.15677 198.637C7.23293 198.256 8.61657 198.179 9.69273 198.637C10.1539 198.79 10.4614 199.019 10.692 199.248C11.1532 199.706 11.8451 199.706 12.3063 199.248C12.7675 198.79 12.6906 198.027 12.2294 197.569C11.6913 197.034 11.1532 196.729 10.6152 196.5C9.00091 195.813 6.84859 195.889 5.15747 196.5C4.31192 196.805 3.54323 197.263 2.92828 197.874C2.31333 198.485 1.77524 199.172 1.46777 200.012C1.16029 200.851 0.929688 201.691 0.929688 202.684C0.929688 203.676 1.08343 204.516 1.46777 205.355C1.77524 206.195 2.31333 206.882 2.92828 207.493C3.54323 208.104 4.31192 208.562 5.15747 208.867C6.00303 209.173 6.92546 209.325 7.92475 209.325C8.92404 209.325 9.69273 209.173 10.5383 208.944C11.2301 208.715 11.7682 208.409 12.1525 208.18C12.6906 207.875 12.9212 207.264 12.9212 206.653V203.294C12.9212 202.607 12.3831 202.073 11.6913 202.073V201.996Z" fill="#563B3F"/>
<path d="M47.2033 208.028C47.7414 207.722 47.972 207.112 47.972 206.501V203.142C47.972 202.455 47.4339 201.92 46.7421 201.92C46.0503 201.92 45.5122 202.455 45.5122 203.142V206.195C45.2816 206.348 44.9741 206.501 44.7435 206.577C43.5905 206.959 42.2837 206.959 41.2075 206.577C40.6695 206.348 40.2083 206.043 39.747 205.661C39.3627 205.279 39.0552 204.821 38.8246 204.287C38.594 203.752 38.5171 203.218 38.5171 202.607C38.5171 201.997 38.594 201.386 38.8246 200.851C39.0552 200.317 39.3627 199.859 39.747 199.477C40.1314 199.096 40.5926 198.79 41.2075 198.561C42.2837 198.18 43.6674 198.103 44.7435 198.561C45.2047 198.714 45.5122 198.943 45.7428 199.172C46.204 199.63 46.8958 199.63 47.3571 199.172C47.8183 198.714 47.7414 197.95 47.2802 197.492C46.7421 196.958 46.204 196.653 45.6659 196.424C44.0517 195.737 41.8994 195.813 40.2083 196.424C39.3627 196.729 38.594 197.187 37.9791 197.798C37.3641 198.409 36.826 199.096 36.5186 199.935C36.2111 200.775 35.9805 201.615 35.9805 202.607C35.9805 203.6 36.1342 204.44 36.5186 205.279C36.826 206.119 37.3641 206.806 37.9791 207.417C38.594 208.028 39.3627 208.486 40.2083 208.791C41.0538 209.096 41.9762 209.249 42.9755 209.249C43.9748 209.249 44.7435 209.096 45.5891 208.867C46.2809 208.638 46.819 208.333 47.2033 208.104V208.028Z" fill="#563B3F"/>
<path d="M17.3041 196.042C16.6123 196.042 16.0742 196.576 16.0742 197.263V207.875C16.0742 208.562 16.6123 209.096 17.3041 209.096C17.9959 209.096 18.534 208.562 18.534 207.875V197.263C18.534 196.576 17.9959 196.042 17.3041 196.042Z" fill="#563B3F"/>
<path d="M31.6778 196.042C30.986 196.042 30.4479 196.576 30.4479 197.263V204.515L24.0678 196.5C23.8372 196.194 23.4528 196.042 23.0685 196.042C22.3767 196.042 21.7617 196.652 21.7617 197.339V207.875C21.7617 208.562 22.2998 209.096 22.9916 209.096C23.6834 209.096 24.2215 208.562 24.2215 207.875V200.622L30.6016 208.638C30.8322 208.943 31.2166 209.096 31.6009 209.096H31.6778C32.3696 209.096 32.9077 208.562 32.9077 207.875V197.263C32.9077 196.576 32.3696 196.042 31.6778 196.042Z" fill="#563B3F"/>
<path d="M59.4268 198.332C60.0418 198.332 60.5799 197.797 60.5799 197.187C60.5799 196.576 60.0418 196.042 59.4268 196.042H52.4318C51.74 196.042 51.125 196.576 51.125 197.339V207.875C51.125 208.562 51.6631 209.172 52.4318 209.172H59.4268C60.0418 209.172 60.5799 208.638 60.5799 208.027C60.5799 207.416 60.0418 206.882 59.4268 206.882H53.6617V203.676H58.735C59.35 203.676 59.888 203.141 59.888 202.531C59.888 201.92 59.35 201.385 58.735 201.385H53.6617V198.332H59.4268Z" fill="#563B3F"/>
<path d="M73.6478 203.218C74.109 202.531 74.3396 201.691 74.3396 200.698C74.3396 199.706 74.109 198.866 73.6478 198.179C73.1866 197.492 72.5716 196.958 71.7261 196.576C70.9574 196.194 69.9581 196.042 68.8819 196.042H65.1154C64.3467 196.042 63.8086 196.652 63.8086 197.339V207.875C63.8086 208.562 64.3467 209.096 65.0385 209.096C65.7303 209.096 66.2684 208.562 66.2684 207.875V205.355H68.8819C69.1125 205.355 69.3431 205.355 69.5738 205.355L71.9567 208.638C72.1873 208.943 72.4948 209.096 72.8791 209.096C73.8015 209.096 74.4165 208.027 73.8015 207.264L71.9567 204.668C72.6485 204.286 73.2635 203.828 73.6478 203.141V203.218ZM71.1111 202.454C70.5731 202.912 69.8044 203.065 68.8051 203.065H66.2684V198.332H68.8051C69.8812 198.332 70.6499 198.561 71.1111 198.943C71.5723 199.324 71.803 199.935 71.803 200.698C71.803 201.462 71.5723 201.996 71.1111 202.454Z" fill="#563B3F"/>
<path d="M92.9408 203.218C93.402 202.531 93.6326 201.691 93.6326 200.698C93.6326 199.706 93.402 198.866 92.9408 198.179C92.4796 197.492 91.8646 196.958 91.019 196.576C90.2504 196.194 89.2511 196.042 88.1749 196.042H84.3315C83.6396 196.042 83.1016 196.576 83.1016 197.263V207.951C83.1016 208.562 83.6396 209.096 84.2546 209.096H84.4083C85.0233 209.096 85.5614 208.562 85.5614 207.951V205.355H88.1749C88.4055 205.355 88.6361 205.355 88.8667 205.355L91.2497 208.638C91.4803 208.943 91.7877 209.096 92.1721 209.096C93.0945 209.096 93.7095 208.027 93.0945 207.264L91.2497 204.668C91.9415 204.286 92.5564 203.828 92.9408 203.141V203.218ZM90.4041 202.454C89.866 202.912 89.0973 203.065 88.098 203.065H85.5614V198.332H88.098C89.1742 198.332 89.9429 198.561 90.4041 198.943C90.8653 199.324 91.0959 199.935 91.0959 200.698C91.0959 201.462 90.8653 201.996 90.4041 202.454Z" fill="#563B3F"/>
<path d="M105.011 198.332C105.626 198.332 106.164 197.797 106.164 197.187C106.164 196.576 105.626 196.042 105.011 196.042H97.9389C97.2471 196.042 96.709 196.576 96.709 197.263V207.875C96.709 208.562 97.2471 209.096 97.9389 209.096H105.011C105.626 209.096 106.164 208.562 106.164 207.951C106.164 207.34 105.626 206.806 105.011 206.806H99.2457V203.599H104.319C104.934 203.599 105.472 203.065 105.472 202.454C105.472 201.844 104.934 201.309 104.319 201.309H99.2457V198.255H105.011V198.332Z" fill="#563B3F"/>
<path d="M118.846 202.225C119.077 202.072 119.231 201.843 119.384 201.614C119.769 201.08 119.922 200.393 119.922 199.629C119.922 198.484 119.461 197.568 118.539 196.881C117.693 196.27 116.54 195.965 115.08 195.965H110.621C109.929 195.965 109.314 196.576 109.314 197.263V207.722C109.314 208.409 109.929 209.019 110.621 209.019H115.387C117.078 209.019 118.231 208.714 119.154 208.103C120.076 207.416 120.537 206.5 120.537 205.279C120.537 204.057 120.384 203.828 119.999 203.217C119.692 202.759 119.307 202.454 118.846 202.149V202.225ZM111.851 198.255H115.08C115.925 198.255 116.54 198.408 117.001 198.713C117.386 198.942 117.539 199.324 117.539 199.858C117.539 200.393 117.386 200.698 117.001 201.003C116.54 201.309 115.925 201.461 115.08 201.461H111.851V198.331V198.255ZM117.539 206.424C117.078 206.729 116.386 206.882 115.464 206.882H111.851V203.599H115.464C116.386 203.599 117.078 203.752 117.539 204.057C117.77 204.21 118.078 204.515 118.078 205.279C118.078 206.042 117.77 206.347 117.539 206.5V206.424Z" fill="#563B3F"/>
<path d="M135.527 197.798C134.912 197.187 134.144 196.729 133.375 196.424C131.684 195.737 129.608 195.813 127.917 196.424C127.072 196.729 126.38 197.187 125.688 197.798C125.073 198.409 124.612 199.096 124.228 199.935C123.92 200.699 123.689 201.615 123.689 202.607C123.689 203.6 123.843 204.44 124.228 205.279C124.535 206.043 125.073 206.806 125.688 207.417C126.303 208.028 127.072 208.486 127.917 208.791C128.763 209.096 129.685 209.249 130.608 209.249C131.53 209.249 132.529 209.096 133.298 208.791C134.144 208.486 134.835 208.028 135.45 207.417C136.065 206.806 136.527 206.119 136.911 205.279C137.218 204.44 137.449 203.6 137.449 202.607C137.449 201.615 137.295 200.775 136.911 199.935C136.603 199.096 136.065 198.409 135.45 197.798H135.527ZM134.682 204.287C134.451 204.821 134.144 205.279 133.759 205.661C133.375 206.043 132.914 206.348 132.376 206.577C131.299 207.035 129.916 207.035 128.84 206.577C128.302 206.348 127.84 206.043 127.456 205.661C127.072 205.279 126.764 204.821 126.534 204.287C126.303 203.752 126.226 203.218 126.226 202.531C126.226 201.844 126.303 201.31 126.534 200.775C126.764 200.241 127.072 199.783 127.456 199.401C127.84 199.019 128.302 198.714 128.84 198.485C129.378 198.256 129.993 198.18 130.608 198.18C131.223 198.18 131.838 198.256 132.376 198.485C132.914 198.714 133.375 199.019 133.759 199.401C134.144 199.783 134.451 200.241 134.682 200.775C134.912 201.31 134.989 201.844 134.989 202.531C134.989 203.218 134.912 203.752 134.682 204.287Z" fill="#563B3F"/>
<path d="M150.517 203.218C150.978 202.531 151.209 201.691 151.209 200.698C151.209 199.706 150.978 198.866 150.517 198.179C150.056 197.492 149.441 196.958 148.595 196.576C147.827 196.194 146.827 196.042 145.751 196.042H142.061C141.293 196.042 140.678 196.652 140.678 197.416V207.875C140.678 208.562 141.216 209.096 141.908 209.096C142.599 209.096 143.138 208.562 143.138 207.875V205.355H145.751C145.982 205.355 146.212 205.355 146.443 205.355L148.826 208.638C149.056 208.943 149.364 209.096 149.748 209.096C150.671 209.096 151.286 208.027 150.671 207.264L148.826 204.668C149.518 204.286 150.133 203.828 150.517 203.141V203.218ZM148.057 202.454C147.519 202.912 146.75 203.065 145.751 203.065H143.214V198.332H145.751C146.827 198.332 147.596 198.561 148.057 198.943C148.518 199.324 148.749 199.935 148.749 200.698C148.749 201.462 148.518 201.996 148.057 202.454Z" fill="#563B3F"/>
<path d="M164.352 196.042C163.66 196.042 163.122 196.576 163.122 197.263V204.515L156.742 196.5C156.511 196.194 156.127 196.042 155.742 196.042C155.05 196.042 154.436 196.652 154.436 197.339V207.875C154.436 208.562 154.974 209.096 155.665 209.096C156.357 209.096 156.895 208.562 156.895 207.875V200.622L163.275 208.638C163.506 208.943 163.89 209.096 164.275 209.096C164.967 209.096 165.582 208.485 165.582 207.798V197.263C165.582 196.576 165.043 196.042 164.352 196.042Z" fill="#563B3F"/>
</svg>
