<svg width="159" height="240" viewBox="0 0 159 240" fill="none" xmlns="http://www.w3.org/2000/svg">
<path d="M158.155 117.533C157.711 117.166 157.119 117.092 156.674 117.386L134.61 130.241L116.099 139.056L120.616 127.156C120.616 127.009 120.69 126.862 120.69 126.715V111.142C120.764 111.142 128.834 90.8679 128.834 90.8679C129.056 90.2802 128.834 89.6925 128.39 89.3252C127.872 88.9579 127.205 89.0314 126.761 89.4722L95.5891 118.488V102.988C95.5891 102.841 95.5891 102.621 95.5151 102.474L80.8546 66.9206C80.6325 66.4798 80.2623 66.186 79.744 66.1126C79.2257 66.1126 78.7814 66.3329 78.5593 66.7737L74.561 73.8256V65.378L78.7814 63.3211C79.1517 63.1008 79.4478 62.7335 79.5219 62.2927C79.5959 61.852 79.3738 61.4112 79.0776 61.1909L76.4121 58.9137L81.7432 55.1673C81.9653 55.0204 82.1134 54.8 82.2615 54.5062L83.9644 49.2172C84.1125 48.8499 83.9644 48.4092 83.7423 48.0419C83.5202 47.6746 83.0759 47.5277 82.7057 47.5277H74.3389C74.1908 47.5277 74.0427 47.5277 73.8946 47.6012L70.1184 48.9969L69.8963 47.2339L72.4878 44.8098C72.784 44.5894 72.9321 44.2221 72.9321 43.8548V39.0801C72.9321 38.3455 72.3397 37.7578 71.5993 37.7578H63.3065C62.5661 37.7578 61.9737 38.3455 61.9737 39.0801V43.8548L60.1967 41.798C60.0486 41.6511 59.9006 41.5042 59.7525 41.4307L54.7176 39.3004C54.3474 39.1535 53.8291 39.1535 53.4588 39.3739C53.0886 39.5943 52.8665 40.035 52.8665 40.4758V46.7197C52.8665 46.94 52.8665 47.087 53.0146 47.2339L54.5695 50.466L51.9039 51.6414C51.6818 51.7148 51.4597 51.9352 51.3116 52.1556L48.3499 57.0038C48.1278 57.3711 48.1278 57.8853 48.3499 58.326C48.572 58.7668 49.0163 58.9871 49.4605 58.9871H54.9397L53.3848 62.4397H48.1278C47.6835 62.4397 47.3133 62.66 47.0912 63.0273C46.869 63.3946 46.795 63.8354 46.9431 64.2026L50.0529 71.9892L47.0171 73.1645C46.4988 73.3849 46.2027 73.8256 46.2027 74.3398V78.6738C46.2027 79.0411 46.3507 79.4084 46.6469 79.6288L49.0903 81.8325L47.3873 90.0598C47.3873 90.3536 47.3873 90.7209 47.5354 91.0148L54.0512 101.079L49.8307 117.313L44.7218 126.275C44.7218 126.348 44.6478 126.421 44.5737 126.568C44.5737 126.642 44.5737 126.789 44.5737 126.862V143.243L2.0732 114.374C1.5549 114.007 0.88852 114.081 0.444264 114.521C7.97212e-06 114.962 -0.0740347 115.623 0.222136 116.137L8.07066 129.433L8.21875 143.317C8.21875 143.611 8.29279 143.831 8.44088 144.051L16.5856 155.437L16.8817 173.875C16.8817 174.022 16.8817 174.169 16.9558 174.316C16.9558 174.463 17.1039 174.536 17.1779 174.683L26.1371 184.527C26.3592 184.82 26.7294 184.967 27.0996 184.967C27.4699 184.967 27.692 184.894 27.9881 184.6C28.5064 184.159 28.5805 183.278 28.0622 182.764L23.1754 177.328L40.3533 184.747C40.5014 184.747 40.7235 184.82 40.8716 184.82C41.3899 184.82 41.8341 184.527 42.0563 184.086C42.3524 183.425 42.0563 182.69 41.3899 182.396L19.4732 172.92L19.1771 154.923C19.1771 154.629 19.103 154.409 18.9549 154.189L10.8102 142.803L10.6622 128.992C10.6622 128.772 10.6622 128.552 10.5141 128.331L5.47917 119.81L52.6444 152.352L49.1644 170.863L23.9158 141.333C23.4715 140.819 22.6571 140.746 22.0647 141.186C21.5464 141.627 21.4724 142.435 21.9166 143.023L48.7942 174.463L52.8665 184.159C53.0886 184.674 53.5329 184.967 54.0512 184.967C54.5695 184.967 54.4214 184.967 54.5695 184.894C55.2359 184.6 55.532 183.866 55.2359 183.204L51.2376 173.655L54.5695 155.952L68.1933 184.233C68.4155 184.674 68.8597 184.967 69.378 184.967C69.8963 184.967 69.7482 184.967 69.9704 184.82C70.6367 184.527 70.8589 183.719 70.5627 183.131L55.2359 151.25C55.2359 151.25 55.2359 151.177 55.2359 151.103C55.2359 151.103 55.2359 151.103 55.2359 151.03C55.2359 151.03 55.1618 150.956 55.0878 150.883L47.3133 145.521V131.27L77.8929 172.92L77.2265 183.719C77.2265 184.453 77.7449 185.041 78.4112 185.114C78.4112 185.114 78.4112 185.114 78.4853 185.114C79.1517 185.114 79.744 184.6 79.744 183.939L80.9287 164.546L90.8504 157.274L93.0717 172.406L87.3704 183.278C87.0742 183.939 87.2963 184.674 87.9627 185.041C88.6291 185.335 89.3695 185.114 89.7398 184.453L95.5151 173.435L107.288 162.857C107.436 162.71 107.584 162.563 107.658 162.342L110.176 155.658L113.433 174.022L99.4393 182.764C98.847 183.131 98.6249 183.939 99.0691 184.527C99.2913 184.894 99.7355 185.114 100.18 185.114C100.624 185.114 100.624 185.114 100.846 184.894L115.581 175.712C115.581 175.712 115.655 175.712 115.729 175.638L131.796 162.489C132.018 162.269 132.166 162.049 132.24 161.755L134.462 150.883L143.051 140.819C143.495 140.305 143.421 139.497 142.902 138.983C142.384 138.542 141.57 138.615 141.051 139.13L132.24 149.487C132.092 149.634 132.018 149.855 131.944 150.075L129.797 160.873L115.803 172.333L112.027 150.956L115.062 142.876L136.09 132.886C136.09 132.886 136.09 132.886 136.165 132.886L154.897 122.014L151.936 128.772C151.936 128.919 151.862 129.139 151.862 129.286V140.525L145.79 163.297L126.983 178.43L113.285 182.764C112.619 182.984 112.249 183.719 112.471 184.38C112.619 184.894 113.137 185.261 113.73 185.261C114.322 185.261 114.026 185.261 114.1 185.261L123.873 182.176L122.985 183.278C122.541 183.866 122.615 184.674 123.207 185.114C123.429 185.335 123.725 185.408 124.022 185.408C124.318 185.408 124.762 185.261 125.058 184.967L128.612 180.633L147.863 165.134C148.085 164.987 148.233 164.693 148.308 164.473L154.453 141.113C154.453 141.04 154.453 140.893 154.453 140.819V129.727L158.896 119.59C159.118 119.076 158.97 118.488 158.599 118.121L158.155 117.533ZM63.1584 71.2546L65.824 73.5318L67.7491 81.1714L64.0469 78.3066C63.5286 77.8658 62.7882 77.9393 62.2699 78.4535L59.0861 81.906V70.9608L63.1584 71.1811V71.2546ZM71.8955 70.8873V78.38L70.3406 81.0245L68.4155 73.3849L71.8955 70.9608V70.8873ZM59.0861 85.7258L63.3806 81.098L68.1933 84.7709L66.9346 87.2684L64.195 92.0432L59.0861 87.7092V85.7258ZM73.2282 63.1742L72.1176 62.5131L71.5253 60.5298L73.7465 60.3094L75.7457 61.9989L73.2282 63.2477V63.1742ZM74.4129 50.2457H80.7806L79.744 53.4043L73.6725 57.6649L71.007 57.9587L70.3406 51.7883L74.4129 50.2457ZM64.4912 40.5492H70.1925V43.4141L67.527 45.9116C67.2308 46.2055 67.0827 46.5728 67.1567 47.0135L67.8972 54.3593L68.5636 59.5013C68.5636 59.5013 68.5636 59.6483 68.5636 59.7217L69.7482 63.6884C69.8223 63.9823 70.0444 64.2761 70.3406 64.423L71.8955 65.378V67.8021L67.0087 71.2546L64.4912 69.1243C64.2691 68.9039 63.9729 68.8305 63.7508 68.8305L58.4937 68.5367L55.532 63.9088L58.3457 57.6649L59.6044 54.8735L62.418 56.4896C62.492 56.4896 62.6401 56.563 62.7142 56.6365C62.7142 56.6365 62.8623 56.6365 62.9363 56.6365C62.9363 56.6365 63.0103 56.6365 63.0844 56.6365C63.1584 56.6365 63.3065 56.6365 63.3806 56.6365C63.4546 56.6365 63.6027 56.6365 63.6767 56.4896C64.0469 56.2692 64.3431 55.8284 64.3431 55.3877V40.6961L64.4912 40.5492ZM55.3839 42.606L58.3457 43.8548L61.8997 47.9685V53.037L59.7525 51.7883L57.235 50.3191L55.458 46.4993V42.5326L55.3839 42.606ZM55.9763 56.563H51.6078L53.1627 53.992L56.0503 52.7432L57.3831 53.4778L56.7908 54.8L55.9763 56.563ZM53.3848 65.1576L54.7176 67.2144L56.4946 70.0058V75.5152L52.7925 72.0626L49.9788 65.1576H53.3848ZM48.7201 75.2948L51.3856 74.2664L56.4946 78.9677V85.3585L48.7201 78.2331V75.2948ZM49.9048 90.2067L51.1635 84.0363L56.8648 89.2518L62.7882 94.3204L54.5695 108.865L56.4946 101.372C56.5686 101.005 56.4946 100.638 56.3465 100.344L49.8307 90.2802L49.9048 90.2067ZM81.0027 160.947L83.8163 115.55C83.8163 115.403 83.8163 115.182 83.8163 115.035L79.5219 102.548V86.7542C79.5219 86.0196 78.9295 85.432 78.1891 85.432C77.4487 85.432 76.8563 86.0196 76.8563 86.7542V102.768C76.8563 102.915 76.8563 103.062 76.8563 103.209L81.1508 115.697L77.8189 168.807L47.1652 127.083L79.3738 70.52L92.9236 103.356V134.722L91.2947 139.791L89.2215 146.182V146.329C89.2215 146.329 89.2215 146.329 89.2215 146.402C89.2215 146.402 89.2215 146.549 89.2215 146.622L90.3321 154.115L81.0027 160.873V160.947ZM105.067 160.947L95.2189 169.835L91.887 146.843L110.546 121.132C110.99 120.545 110.842 119.737 110.25 119.37C109.657 118.929 108.843 119.076 108.473 119.663L94.3304 139.203L95.5891 135.31C95.5891 135.163 95.5891 135.016 95.5891 134.943V122.234L124.318 95.4957L118.32 110.628C118.32 110.775 118.246 110.922 118.246 111.069V126.642C118.172 126.642 105.141 161.02 105.141 161.02L105.067 160.947Z" fill="white"/>
<path d="M63.5285 59.1352C63.4544 58.4006 62.788 57.9599 62.0476 58.0333C61.3072 58.1068 60.8629 58.7679 60.937 59.5025L61.6774 64.2773C61.6774 64.6446 61.9736 65.0118 62.2697 65.1588L65.7497 67.2156C65.9719 67.3625 66.194 67.3625 66.4161 67.3625C66.8604 67.3625 67.3046 67.1421 67.5268 66.7014C67.897 66.1137 67.6749 65.3057 67.0825 64.9384L64.1208 63.1754L63.4544 58.9883L63.5285 59.1352Z" fill="white"/>
<path d="M78.3373 37.1704L91.2207 33.7914L98.1807 34.0852L104.326 38.7865C104.548 38.9334 104.845 39.0803 105.141 39.0803C105.437 39.0803 105.141 39.0803 105.215 39.0803L113.878 38.4192C114.248 38.4192 114.618 38.1989 114.84 37.8316L116.469 35.4075L123.948 35.6278C124.318 35.6278 124.762 35.4809 124.984 35.1136C125.206 34.8198 125.354 34.379 125.206 34.0118L124.54 31.2938L128.02 29.4574C128.464 29.237 128.686 28.7962 128.686 28.3555C128.686 27.9148 128.464 27.474 128.094 27.2536L126.761 26.4456L134.24 23.6542C134.61 23.5073 134.906 23.2134 135.054 22.7727C135.128 22.4054 135.054 21.9647 134.832 21.6708L131.574 17.5572C131.278 17.1164 130.685 16.9695 130.167 17.1164L114.84 21.8177L119.727 1.69029C119.801 1.24954 119.727 0.808797 119.431 0.514966C119.135 0.221134 118.691 0.0742188 118.32 0.0742188L114.766 0.588424C114.322 0.588424 113.952 0.955713 113.73 1.39646L108.843 13.2966L107.436 7.12617C107.288 6.61197 106.918 6.24468 106.399 6.17122C105.881 6.09776 105.363 6.31814 105.067 6.68543L100.476 13.4436C100.328 13.6639 100.254 13.8843 100.254 14.1047L99.9577 23.4338L97.5143 21.8912C97.2922 21.7443 97.0701 21.6708 96.7739 21.6708H92.5535C92.1092 21.7443 91.739 21.9647 91.5169 22.332L88.259 27.1067L77.3007 34.9667C76.7824 35.334 76.6343 35.9951 76.8564 36.5828C77.1526 37.1704 77.7449 37.4643 78.3373 37.2439V37.1704ZM89.8879 29.0166C90.036 28.9432 90.1101 28.7962 90.1841 28.7228L93.1458 24.3153H96.3297L100.402 26.8129C100.772 27.0333 101.291 27.1067 101.735 26.8129C102.179 26.5925 102.401 26.1518 102.401 25.711L102.771 14.5454L105.437 10.5787L107.14 17.7776C107.288 18.2918 107.732 18.7325 108.325 18.806C108.917 18.806 109.435 18.5121 109.657 17.9979L115.803 3.01253L116.765 2.86562L111.805 23.3604C111.731 23.8011 111.805 24.3153 112.175 24.6091C112.545 24.903 112.989 25.0499 113.434 24.903L130.093 19.7609L131.722 21.8177L123.429 24.903C122.985 25.0499 122.615 25.4906 122.615 26.0048C122.615 26.5191 122.837 26.9598 123.207 27.2536L124.91 28.282L122.541 29.5308C122.022 29.8247 121.726 30.4123 121.874 31L122.393 33.0568L115.877 32.9099C115.433 32.9099 114.988 33.1303 114.766 33.4975L113.063 35.9951L105.511 36.5828L99.4394 31.9549C99.2173 31.808 98.9952 31.7346 98.699 31.6611L91.1467 31.3673C90.9986 31.3673 90.9245 31.3673 90.8505 31.3673L84.4828 33.0568L89.962 29.0901L89.8879 29.0166Z" fill="white"/>
<path d="M106.251 203.992L82.0394 231.171L94.1084 205.387C94.4045 204.726 94.1084 203.992 93.516 203.698C92.8497 203.404 92.1092 203.698 91.8131 204.285L78.4113 232.86V204.873C78.4113 204.138 77.819 203.551 77.0786 203.551C76.3381 203.551 75.7458 204.138 75.7458 204.873V232.86L62.4181 204.359C62.1219 203.698 61.3075 203.404 60.7151 203.698C60.0487 203.992 59.7526 204.726 60.0487 205.387L72.4139 231.832L46.4249 203.992C45.9066 203.477 45.0921 203.404 44.5738 203.992C44.0555 204.506 43.9815 205.314 44.5738 205.828L76.116 239.619C76.116 239.619 76.19 239.619 76.2641 239.692C76.2641 239.692 76.4122 239.766 76.4862 239.766C76.5603 239.766 76.7083 239.766 76.7824 239.766C76.8564 239.766 76.9305 239.766 77.0045 239.766C77.0045 239.766 77.0045 239.766 77.0786 239.766C77.0786 239.766 77.1526 239.766 77.2266 239.766C77.2266 239.766 77.3747 239.766 77.3747 239.692C77.3747 239.692 77.4488 239.619 77.5228 239.545L107.658 205.755C108.102 205.24 108.102 204.432 107.51 203.918C106.992 203.477 106.177 203.477 105.659 204.065L106.251 203.992Z" fill="white"/>
<path d="M10.366 193.709C9.69959 193.709 9.1813 194.223 9.1813 194.884V197.822C8.95917 197.969 8.663 198.116 8.44087 198.19C7.33023 198.557 6.0715 198.557 5.0349 198.19C4.5166 197.969 4.07235 197.676 3.62809 197.308C3.25788 196.941 2.96171 196.5 2.73958 195.986C2.51745 195.472 2.44341 194.958 2.44341 194.37C2.44341 193.782 2.51745 193.195 2.73958 192.68C2.96171 192.166 3.25788 191.725 3.62809 191.358C3.99831 190.991 4.44256 190.697 5.0349 190.477C6.0715 190.109 7.40427 190.036 8.44087 190.477C8.88512 190.624 9.1813 190.844 9.40342 191.064C9.84768 191.505 10.5141 191.505 10.9583 191.064C11.4026 190.624 11.3285 189.889 10.8843 189.448C10.366 188.934 9.84768 188.64 9.32938 188.42C7.77448 187.759 5.70129 187.832 4.07235 188.42C3.25788 188.714 2.51745 189.154 1.92511 189.742C1.33277 190.33 0.81447 190.991 0.518299 191.799C0.222128 192.607 0 193.415 0 194.37C0 195.325 0.148085 196.133 0.518299 196.941C0.81447 197.749 1.33277 198.41 1.92511 198.998C2.51745 199.585 3.25788 200.026 4.07235 200.32C4.88682 200.614 5.77533 200.761 6.73789 200.761C7.70044 200.761 8.44087 200.614 9.25534 200.393C9.92172 200.173 10.44 199.879 10.8102 199.659C11.3285 199.365 11.5507 198.777 11.5507 198.19V194.958C11.5507 194.296 11.0324 193.782 10.366 193.782V193.709Z" fill="white"/>
<path d="M44.5737 199.511C45.092 199.217 45.3141 198.63 45.3141 198.042V194.81C45.3141 194.149 44.7958 193.635 44.1294 193.635C43.463 193.635 42.9447 194.149 42.9447 194.81V197.748C42.7226 197.895 42.4264 198.042 42.2043 198.116C41.0937 198.483 39.8349 198.483 38.7983 198.116C38.28 197.895 37.8358 197.601 37.3915 197.234C37.0213 196.867 36.7251 196.426 36.503 195.912C36.2809 195.398 36.2068 194.883 36.2068 194.296C36.2068 193.708 36.2809 193.12 36.503 192.606C36.7251 192.092 37.0213 191.651 37.3915 191.284C37.7617 190.917 38.206 190.623 38.7983 190.402C39.8349 190.035 41.1677 189.962 42.2043 190.402C42.6486 190.549 42.9447 190.77 43.1669 190.99C43.6111 191.431 44.2775 191.431 44.7217 190.99C45.166 190.549 45.092 189.815 44.6477 189.374C44.1294 188.86 43.6111 188.566 43.0928 188.346C41.5379 187.685 39.4647 187.758 37.8358 188.346C37.0213 188.639 36.2809 189.08 35.6885 189.668C35.0962 190.256 34.5779 190.917 34.2817 191.725C33.9856 192.533 33.7634 193.341 33.7634 194.296C33.7634 195.251 33.9115 196.059 34.2817 196.867C34.5779 197.675 35.0962 198.336 35.6885 198.924C36.2809 199.511 37.0213 199.952 37.8358 200.246C38.6502 200.54 39.5388 200.687 40.5013 200.687C41.4639 200.687 42.2043 200.54 43.0188 200.319C43.6852 200.099 44.2034 199.805 44.5737 199.585V199.511Z" fill="white"/>
<path d="M15.7711 187.98C15.1047 187.98 14.5864 188.495 14.5864 189.156V199.366C14.5864 200.028 15.1047 200.542 15.7711 200.542C16.4375 200.542 16.9558 200.028 16.9558 199.366V189.156C16.9558 188.495 16.4375 187.98 15.7711 187.98Z" fill="white"/>
<path d="M29.6171 187.98C28.9507 187.98 28.4324 188.495 28.4324 189.156V196.134L22.2868 188.421C22.0647 188.127 21.6945 187.98 21.3243 187.98C20.6579 187.98 20.0656 188.568 20.0656 189.229V199.366C20.0656 200.028 20.5839 200.542 21.2502 200.542C21.9166 200.542 22.4349 200.028 22.4349 199.366V192.388L28.5805 200.101C28.8026 200.395 29.1728 200.542 29.543 200.542H29.6171C30.2834 200.542 30.8017 200.028 30.8017 199.366V189.156C30.8017 188.495 30.2834 187.98 29.6171 187.98Z" fill="white"/>
<path d="M56.3465 190.184C56.9388 190.184 57.4571 189.67 57.4571 189.082C57.4571 188.495 56.9388 187.98 56.3465 187.98H49.6086C48.9422 187.98 48.3499 188.495 48.3499 189.229V199.366C48.3499 200.028 48.8682 200.615 49.6086 200.615H56.3465C56.9388 200.615 57.4571 200.101 57.4571 199.513C57.4571 198.926 56.9388 198.411 56.3465 198.411H50.7933V195.326H55.6801C56.2724 195.326 56.7907 194.812 56.7907 194.224C56.7907 193.637 56.2724 193.123 55.6801 193.123H50.7933V190.184H56.3465Z" fill="white"/>
<path d="M70.0444 194.886C70.4886 194.224 70.7107 193.416 70.7107 192.461C70.7107 191.506 70.4886 190.698 70.0444 190.037C69.6001 189.376 69.0078 188.862 68.1933 188.495C67.4529 188.127 66.4903 187.98 65.4537 187.98H61.8256C61.0852 187.98 60.5669 188.568 60.5669 189.229V199.366C60.5669 200.028 61.0852 200.542 61.7516 200.542C62.418 200.542 62.9363 200.028 62.9363 199.366V196.942H65.4537C65.6758 196.942 65.898 196.942 66.1201 196.942L68.4154 200.101C68.6376 200.395 68.9337 200.542 69.3039 200.542C70.1924 200.542 70.7848 199.513 70.1924 198.779L68.4154 196.281C69.0818 195.914 69.6741 195.473 70.0444 194.812V194.886ZM67.601 194.151C67.0827 194.592 66.3422 194.739 65.3797 194.739H62.9363V190.184H65.3797C66.4163 190.184 67.1567 190.405 67.601 190.772C68.0452 191.139 68.2673 191.727 68.2673 192.461C68.2673 193.196 68.0452 193.71 67.601 194.151Z" fill="white"/>
<path d="M88.6291 194.886C89.0733 194.224 89.2955 193.416 89.2955 192.461C89.2955 191.506 89.0733 190.698 88.6291 190.037C88.1848 189.376 87.5925 188.862 86.778 188.495C86.0376 188.127 85.075 187.98 84.0384 187.98H80.3363C79.6699 187.98 79.1516 188.495 79.1516 189.156V199.44C79.1516 200.028 79.6699 200.542 80.2623 200.542H80.4103C81.0027 200.542 81.521 200.028 81.521 199.44V196.942H84.0384C84.2606 196.942 84.4827 196.942 84.7048 196.942L87.0001 200.101C87.2223 200.395 87.5184 200.542 87.8886 200.542C88.7772 200.542 89.3695 199.513 88.7772 198.779L87.0001 196.281C87.6665 195.914 88.2589 195.473 88.6291 194.812V194.886ZM86.1857 194.151C85.6674 194.592 84.9269 194.739 83.9644 194.739H81.521V190.184H83.9644C85.001 190.184 85.7414 190.405 86.1857 190.772C86.6299 191.139 86.852 191.727 86.852 192.461C86.852 193.196 86.6299 193.71 86.1857 194.151Z" fill="white"/>
<path d="M100.254 190.184C100.846 190.184 101.364 189.67 101.364 189.082C101.364 188.495 100.846 187.98 100.254 187.98H93.4418C92.7754 187.98 92.2571 188.495 92.2571 189.156V199.366C92.2571 200.028 92.7754 200.542 93.4418 200.542H100.254C100.846 200.542 101.364 200.028 101.364 199.44C101.364 198.852 100.846 198.338 100.254 198.338H94.7005V195.253H99.5873C100.18 195.253 100.698 194.739 100.698 194.151C100.698 193.563 100.18 193.049 99.5873 193.049H94.7005V190.111H100.254V190.184Z" fill="white"/>
<path d="M113.582 193.93C113.804 193.783 113.952 193.563 114.1 193.342C114.47 192.828 114.618 192.167 114.618 191.432C114.618 190.33 114.174 189.449 113.285 188.788C112.471 188.2 111.36 187.906 109.953 187.906H105.659C104.993 187.906 104.4 188.494 104.4 189.155V199.219C104.4 199.88 104.993 200.468 105.659 200.468H110.25C111.879 200.468 112.989 200.174 113.878 199.586C114.766 198.925 115.211 198.043 115.211 196.868C115.211 195.693 115.062 195.472 114.692 194.885C114.396 194.444 114.026 194.15 113.582 193.856V193.93ZM106.844 190.11H109.953C110.768 190.11 111.36 190.257 111.805 190.551C112.175 190.771 112.323 191.138 112.323 191.653C112.323 192.167 112.175 192.461 111.805 192.754C111.36 193.048 110.768 193.195 109.953 193.195H106.844V190.183V190.11ZM112.323 197.97C111.879 198.264 111.212 198.411 110.324 198.411H106.844V195.252H110.324C111.212 195.252 111.879 195.399 112.323 195.693C112.545 195.84 112.841 196.134 112.841 196.868C112.841 197.603 112.545 197.897 112.323 198.043V197.97Z" fill="white"/>
<path d="M129.649 189.668C129.056 189.08 128.316 188.639 127.576 188.346C125.947 187.685 123.948 187.758 122.319 188.346C121.504 188.639 120.838 189.08 120.171 189.668C119.579 190.256 119.135 190.917 118.765 191.725C118.468 192.459 118.246 193.341 118.246 194.296C118.246 195.251 118.394 196.059 118.765 196.867C119.061 197.601 119.579 198.336 120.171 198.924C120.764 199.511 121.504 199.952 122.319 200.246C123.133 200.54 124.022 200.687 124.91 200.687C125.799 200.687 126.761 200.54 127.502 200.246C128.316 199.952 128.982 199.511 129.575 198.924C130.167 198.336 130.611 197.675 130.982 196.867C131.278 196.059 131.5 195.251 131.5 194.296C131.5 193.341 131.352 192.533 130.982 191.725C130.685 190.917 130.167 190.256 129.575 189.668H129.649ZM128.834 195.912C128.612 196.426 128.316 196.867 127.946 197.234C127.576 197.601 127.131 197.895 126.613 198.116C125.576 198.556 124.244 198.556 123.207 198.116C122.689 197.895 122.245 197.601 121.874 197.234C121.504 196.867 121.208 196.426 120.986 195.912C120.764 195.398 120.69 194.883 120.69 194.222C120.69 193.561 120.764 193.047 120.986 192.533C121.208 192.019 121.504 191.578 121.874 191.211C122.245 190.843 122.689 190.549 123.207 190.329C123.725 190.109 124.318 190.035 124.91 190.035C125.502 190.035 126.095 190.109 126.613 190.329C127.131 190.549 127.576 190.843 127.946 191.211C128.316 191.578 128.612 192.019 128.834 192.533C129.056 193.047 129.13 193.561 129.13 194.222C129.13 194.883 129.056 195.398 128.834 195.912Z" fill="white"/>
<path d="M144.087 194.886C144.531 194.224 144.753 193.416 144.753 192.461C144.753 191.506 144.531 190.698 144.087 190.037C143.643 189.376 143.05 188.862 142.236 188.495C141.496 188.127 140.533 187.98 139.496 187.98H135.942C135.202 187.98 134.61 188.568 134.61 189.303V199.366C134.61 200.028 135.128 200.542 135.794 200.542C136.461 200.542 136.979 200.028 136.979 199.366V196.942H139.496C139.719 196.942 139.941 196.942 140.163 196.942L142.458 200.101C142.68 200.395 142.976 200.542 143.347 200.542C144.235 200.542 144.828 199.513 144.235 198.779L142.458 196.281C143.125 195.914 143.717 195.473 144.087 194.812V194.886ZM141.718 194.151C141.199 194.592 140.459 194.739 139.496 194.739H137.053V190.184H139.496C140.533 190.184 141.273 190.405 141.718 190.772C142.162 191.139 142.384 191.727 142.384 192.461C142.384 193.196 142.162 193.71 141.718 194.151Z" fill="white"/>
<path d="M157.415 187.98C156.748 187.98 156.23 188.495 156.23 189.156V196.134L150.085 188.421C149.862 188.127 149.492 187.98 149.122 187.98C148.456 187.98 147.863 188.568 147.863 189.229V199.366C147.863 200.028 148.382 200.542 149.048 200.542C149.714 200.542 150.233 200.028 150.233 199.366V192.388L156.378 200.101C156.6 200.395 156.971 200.542 157.341 200.542C158.007 200.542 158.599 199.954 158.599 199.293V189.156C158.599 188.495 158.081 187.98 157.415 187.98Z" fill="white"/>
</svg>
